<?xml version="1.0" encoding="utf-8"?>
<!-- Generator: Adobe Illustrator 19.0.0, SVG Export Plug-In . SVG Version: 6.00 Build 0)  -->
<svg version="1.1" id="圖層_1" xmlns="http://www.w3.org/2000/svg" xmlns:xlink="http://www.w3.org/1999/xlink" x="0px" y="0px"
	 viewBox="0 0 140 60" style="enable-background:new 0 0 140 60;" xml:space="preserve">
<g id="XMLID_13_">
	<path id="XMLID_16_" d="M3.1,31.5c-0.3-2.3-0.5-4.4-0.8-6.2c-0.2-1.8-0.5-3.5-0.7-5c-0.2-1-0.4-2.2-0.6-3.7c-0.3-1.5-0.6-3.3-1-5.4
		l15.2-2.4l1.4,5.2c-1.5,0-3.1,0.1-4.5,0.2c-1.5,0.1-2.9,0.3-4.3,0.5l0.6,3.7l6.9-1.3l1.9,5.2L9,23.3l1.4,7.1L3.1,31.5z"/>
	<path id="XMLID_18_" d="M30.6,27.1c-3.1,0.5-5.8,0-7.8-1.6s-3.4-3.9-3.9-7.2c-0.5-3.1,0-5.6,1.5-7.6c1.5-2,3.8-3.3,6.9-3.8
		c3.4-0.5,6.1-0.1,8.1,1.4c2,1.4,3.3,3.8,3.9,7.1c0.5,3.1,0,5.7-1.5,7.8C36.2,25.3,33.8,26.5,30.6,27.1z M29.9,21.2
		c1.4-0.2,2.4-0.9,3.1-2.1c0.7-1.2,1-2.4,0.8-3.8c-0.1-0.6-0.3-1-0.6-1.5c-0.3-0.4-0.7-0.8-1.2-1.1c-0.6-0.4-1.2-0.6-2-0.8
		c-0.7-0.2-1.4-0.2-1.9-0.2c-0.6,0.1-1.2,0.3-1.8,0.7c-0.6,0.4-1.2,0.9-1.5,1.4c-0.3,0.4-0.5,1-0.7,1.6c-0.1,0.6-0.1,1.3,0,2
		c0.2,1.3,0.9,2.3,2,3C27.4,21.2,28.6,21.4,29.9,21.2z"/>
	<path id="XMLID_21_" d="M52.1,23.6c-3.1,0.5-5.8,0-7.8-1.6c-2.1-1.5-3.4-3.9-3.9-7.2c-0.5-3.1,0-5.6,1.5-7.6c1.5-2,3.8-3.3,6.9-3.8
		c3.4-0.5,6.1-0.1,8.1,1.4c2,1.4,3.3,3.8,3.9,7.1c0.5,3.1,0,5.7-1.5,7.8C57.7,21.8,55.3,23.1,52.1,23.6z M51.5,17.8
		c1.4-0.2,2.4-0.9,3.1-2.1c0.7-1.2,1-2.4,0.8-3.8c-0.1-0.6-0.3-1-0.6-1.5c-0.3-0.4-0.7-0.8-1.2-1.1c-0.6-0.4-1.2-0.6-2-0.8
		c-0.7-0.2-1.4-0.2-1.9-0.2c-0.6,0.1-1.2,0.3-1.8,0.7c-0.6,0.4-1.2,0.9-1.5,1.4c-0.3,0.4-0.5,1-0.7,1.6c-0.1,0.6-0.1,1.3,0,2
		c0.2,1.3,0.9,2.3,2,3C48.9,17.7,50.1,18,51.5,17.8z"/>
	<path id="XMLID_24_" d="M69,0.2C70.1,0,71.3,0,72.5,0c1.2,0.1,2.1,0.2,2.8,0.5c0.8,0.3,1.6,0.7,2.3,1.3c0.7,0.6,1.4,1.3,2,2.1
		c0.6,0.8,1.1,1.6,1.4,2.4c0.4,0.8,0.6,1.5,0.7,2.1c0.2,1.3,0.1,2.7-0.3,4.1c-0.4,1.5-1.1,2.8-2,4.1c-0.7,1-1.5,1.8-2.4,2.3
		c-0.9,0.5-2.3,0.9-4.1,1.2l-8.7,1.4c-0.3-2.4-0.6-4.3-0.7-5.6c-0.2-1.4-0.4-2.6-0.5-3.6c-0.3-1.7-0.6-3.4-1-5.2
		c-0.4-1.8-0.8-3.7-1.2-5.6L69,0.2z M67.7,5.7C67.9,6.9,68,8,68.2,8.9c0.1,0.9,0.2,1.7,0.4,2.5c0.1,0.5,0.2,1.1,0.3,1.8
		c0.1,0.7,0.3,1.7,0.6,2.9c0.1,0,0.1,0,0.2,0c0.1,0,0.2,0,0.4-0.1c0.5-0.1,0.9-0.2,1.3-0.4c0.4-0.2,0.8-0.5,1.2-0.8
		c0.9-0.7,1.7-1.7,2.4-2.8c0.7-1.1,0.9-1.9,0.9-2.3c0-0.3-0.4-0.7-1-1.4c-0.6-0.6-1.3-1.2-2-1.7c-0.8-0.5-1.6-0.9-2.5-1.1
		C69.6,5.5,68.7,5.5,67.7,5.7z"/>
</g>
<g id="XMLID_40_">
	<path id="XMLID_41_" d="M94,0.1c0.5,1.1,1,2.4,1.6,3.7c0.6,1.4,1.3,3,2,4.8c0.9-1.2,1.8-2.4,2.7-3.6c0.9-1.2,1.9-2.6,2.9-4.1
		l2.9,0.4c-0.1,2.5,0,5.1,0.2,7.7c0.2,2.6,0.5,5.3,1,8.1l-5.3-0.4l-0.6-7.1l-5.1,6.8L93,9.7l-2.3,6.2l-5-0.5c0.9-2.5,1.8-5,2.7-7.6
		C89.3,5.2,90.1,2.6,91,0L94,0.1z"/>
	<path id="XMLID_44_" d="M107.1,17.2c1.4-2.4,2.9-4.8,4.3-7.3c1.4-2.5,2.8-5.1,4.1-7.7l3.6,0.3l6.4,16.3l-5.8-0.2l-0.8-3.1
		c-0.6-0.1-1.1-0.1-1.5-0.2c-0.4-0.1-0.8-0.1-1.1-0.1c-0.3,0-0.6-0.1-1.1-0.1c-0.4,0-0.9-0.1-1.5-0.1l-1.3,2.9L107.1,17.2z
		 M115.3,11.2l3.3,0.6L117.3,8L115.3,11.2z"/>
	<path id="XMLID_47_" d="M131.1,3.6c0.8,0.1,1.5,0.1,2.2,0.2c0.7,0.1,1.2,0.1,1.6,0.2c0.6,0.1,1.1,0.3,1.5,0.5
		c0.4,0.2,0.7,0.5,1.1,0.8c0.8,0.8,1.5,1.5,1.9,2.3c0.4,0.8,0.6,1.4,0.6,2c-0.1,1-0.4,2-1,3c-0.6,1-1.2,1.8-1.9,2.4
		c-0.4,0.3-0.8,0.5-1.4,0.5s-1.3,0.1-2.3,0c-0.3,0-0.7-0.1-1.1-0.1c-0.4-0.1-0.8-0.1-1.2-0.2l0,0.4c-0.1,0.7-0.1,1.3-0.1,1.9
		c0,0.6,0,1.2,0.1,1.9c-0.4,0-0.9-0.1-1.5-0.1c-0.6-0.1-1-0.1-1.1-0.1c-0.1,0-0.4,0-1-0.1c-0.6,0-1.1-0.1-1.7-0.1
		c0.3-1.6,0.5-3,0.7-4.4c0.2-1.3,0.3-2.6,0.4-3.7c0.1-1.1,0.2-2.2,0.2-3.5c0-1.2,0.1-2.6,0.1-4.2L131.1,3.6z M131.3,12.7
		c1.2-0.2,2.3-0.7,3.2-1.4c0.9-0.7,1.4-1.4,1.5-1.9c0-0.4-0.2-0.8-0.6-1.3c-0.5-0.4-1.5-1.2-3.2-2.2c-0.2,1-0.3,2-0.5,3
		c-0.1,1-0.2,1.9-0.3,2.8L131.3,12.7z"/>
</g>
<g id="XMLID_1_">
	<path id="XMLID_2_" d="M85.6,45.4c0,0.1,0,0.3-0.1,0.6c-0.2,2.4-0.3,4.2-0.3,5.3c0,1,0,2.1,0.1,3.4c0.1,1.3,0.2,3,0.4,5.2H72.7
		c-1.2,0-2.4-0.3-3.5-0.8c-1.1-0.5-2.4-1.4-3.8-2.7c-1.6-1.5-3-3-4-4.8c-1.1-1.7-1.6-3.1-1.6-4.1c0-1.4,0.6-3.1,1.9-5.1
		c1.2-2,2.9-3.9,5-5.7c1.8-1.5,3.6-2.8,5.6-3.7c2-0.9,4.2-1.6,6.6-2l5,5.8c-4.5,1.7-8.1,3.5-10.9,5.3s-4.2,3.3-4.2,4.4
		c0,0.5,0.4,1.2,1.1,2c0.8,0.8,1.7,1.6,2.8,2.2c0.7,0.4,1.4,0.7,2.1,0.9c0.7,0.2,1.5,0.3,2.4,0.3h0.3c0-1.6,0-3.1-0.1-4.7
		c0-1.6-0.1-3.2-0.2-4.7c1.4,0.4,2.8,0.8,4.1,1.3C82.8,44.3,84.2,44.8,85.6,45.4z"/>
	<path id="XMLID_4_" d="M102.4,59.9c-4.4,0-7.8-1.3-10.3-3.8c-2.5-2.6-3.7-6.1-3.7-10.6c0-4.3,1.2-7.7,3.7-10.1
		c2.4-2.4,5.9-3.6,10.2-3.6c4.7,0,8.3,1.2,10.7,3.6c2.5,2.4,3.7,5.9,3.7,10.6c0,4.4-1.3,7.8-3.8,10.3
		C110.4,58.7,106.9,59.9,102.4,59.9z M102.9,51.8c1.9,0,3.5-0.7,4.7-2.1c1.3-1.4,1.9-3.1,1.9-5c0-0.8-0.1-1.5-0.4-2.1
		c-0.3-0.6-0.8-1.2-1.4-1.8c-0.7-0.6-1.5-1.1-2.5-1.6s-1.8-0.6-2.6-0.6c-0.8,0-1.7,0.2-2.6,0.6c-1,0.4-1.8,0.9-2.4,1.5
		c-0.5,0.5-1,1.2-1.2,2c-0.3,0.8-0.4,1.7-0.4,2.7c0,1.8,0.7,3.3,2.1,4.6C99.4,51.2,101,51.8,102.9,51.8z"/>
	<path id="XMLID_7_" d="M122.8,50.6l6,4.7c-0.9,0.9-1.7,1.7-2.6,2.5c-0.8,0.8-1.7,1.5-2.5,2.2c-1.1-0.5-2.2-1-3.1-1.6
		c-1-0.6-1.9-1.2-2.7-1.9L122.8,50.6z M120.6,50.1l-2.1-15.9l8.5-2.4l0.3,14.4c-1,0.9-2,1.7-3.1,2.3
		C123.1,49.1,121.9,49.6,120.6,50.1z"/>
	<path id="XMLID_10_" d="M134,50.6l6,4.7c-0.9,0.9-1.7,1.7-2.6,2.5c-0.8,0.8-1.7,1.5-2.5,2.2c-1.1-0.5-2.2-1-3.1-1.6
		c-1-0.6-1.9-1.2-2.7-1.9L134,50.6z M131.9,50.1l-2.1-15.9l8.5-2.4l0.3,14.4c-1,0.9-2,1.7-3.1,2.3C134.4,49.1,133.2,49.6,131.9,50.1
		z"/>
</g>
</svg>
